<svg xmlns="http://www.w3.org/2000/svg" xmlns:xlink="http://www.w3.org/1999/xlink" width="400" height="400" viewBox="0 0 400 400">
  <defs>
    <filter id="Linie_19" x="142" y="301" width="111" height="46" filterUnits="userSpaceOnUse">
      <feOffset dy="3" input="SourceAlpha"/>
      <feGaussianBlur stdDeviation="3" result="blur"/>
      <feFlood flood-opacity="0.161"/>
      <feComposite operator="in" in2="blur"/>
      <feComposite in="SourceGraphic"/>
    </filter>
    <filter id="Linie_20" x="73.183" y="76.183" width="248.634" height="97.633" filterUnits="userSpaceOnUse">
      <feOffset dy="3" input="SourceAlpha"/>
      <feGaussianBlur stdDeviation="3" result="blur-2"/>
      <feFlood flood-opacity="0.161"/>
      <feComposite operator="in" in2="blur-2"/>
      <feComposite in="SourceGraphic"/>
    </filter>
    <filter id="Pfad_52" x="33.028" y="124.102" width="134.074" height="189.12" filterUnits="userSpaceOnUse">
      <feOffset dy="3" input="SourceAlpha"/>
      <feGaussianBlur stdDeviation="3" result="blur-3"/>
      <feFlood flood-opacity="0.161"/>
      <feComposite operator="in" in2="blur-3"/>
      <feComposite in="SourceGraphic"/>
    </filter>
    <filter id="Pfad_53" x="231.194" y="80.065" width="134.074" height="189.12" filterUnits="userSpaceOnUse">
      <feOffset dy="3" input="SourceAlpha"/>
      <feGaussianBlur stdDeviation="3" result="blur-4"/>
      <feFlood flood-opacity="0.161"/>
      <feComposite operator="in" in2="blur-4"/>
      <feComposite in="SourceGraphic"/>
    </filter>
    <clipPath id="clip-Zeichenfläche_9">
      <rect width="400" height="400"/>
    </clipPath>
  </defs>
  <g id="Zeichenfläche_9" data-name="Zeichenfläche – 9" clip-path="url(#clip-Zeichenfläche_9)">
    <g id="Gruppe_23" data-name="Gruppe 23" transform="translate(23 23)">
      <rect id="Rechteck_122" data-name="Rechteck 122" width="354" height="354" fill="none"/>
      <line id="Linie_18" data-name="Linie 18" y2="242" transform="translate(175 56)" fill="none" stroke="#464646" stroke-linecap="round" stroke-linejoin="round" stroke-width="28"/>
      <g transform="matrix(1, 0, 0, 1, -23, -23)" filter="url(#Linie_19)">
        <line id="Linie_19-2" data-name="Linie 19" x2="65" transform="translate(165 321)" fill="none" stroke="#464646" stroke-linecap="round" stroke-linejoin="round" stroke-width="28"/>
      </g>
      <g transform="matrix(1, 0, 0, 1, -23, -23)" filter="url(#Linie_20)">
        <line id="Linie_20-2" data-name="Linie 20" y1="46" x2="197" transform="translate(99 99)" fill="none" stroke="#464646" stroke-linecap="round" stroke-linejoin="round" stroke-width="28"/>
      </g>
      <g transform="matrix(1, 0, 0, 1, -23, -23)" filter="url(#Pfad_52)">
        <path id="Pfad_52-2" data-name="Pfad 52" d="M24,198.092c0,24.317,27.523,33.028,44.037,33.028s44.037-8.711,44.037-33.028L68.037,88Z" transform="translate(32.03 56.1)" fill="rgba(0,0,0,0)" stroke="#464646" stroke-linecap="round" stroke-linejoin="round" stroke-width="28"/>
      </g>
      <g transform="matrix(1, 0, 0, 1, -23, -23)" filter="url(#Pfad_53)">
        <path id="Pfad_53-2" data-name="Pfad 53" d="M168,166.092c0,24.317,27.523,33.028,44.037,33.028s44.037-8.711,44.037-33.028L212.037,56Z" transform="translate(86.19 44.06)" fill="rgba(0,0,0,0)" stroke="#464646" stroke-linecap="round" stroke-linejoin="round" stroke-width="28"/>
      </g>
    </g>
  </g>
</svg>
