<svg xmlns="http://www.w3.org/2000/svg" xmlns:xlink="http://www.w3.org/1999/xlink" width="400" height="400" viewBox="0 0 400 400">
  <defs>
    <linearGradient id="linear-gradient" x1="0.034" y1="0.965" x2="0.821" y2="0.172" gradientUnits="objectBoundingBox">
      <stop offset="0" stop-color="#a3bdff"/>
      <stop offset="1" stop-color="#00247e"/>
    </linearGradient>
    <clipPath id="clip-Zeichenfläche_5">
      <rect width="400" height="400"/>
    </clipPath>
  </defs>
  <g id="Zeichenfläche_5" data-name="Zeichenfläche – 5" clip-path="url(#clip-Zeichenfläche_5)">
    <path id="Pfad_56" data-name="Pfad 56" d="M403.523,359.472a15.852,15.852,0,0,1-3.686,16.625l-47.556,47.556a15.852,15.852,0,0,1-11.215,4.657,14.052,14.052,0,0,1-1.565,0,15.852,15.852,0,0,1-11.631-6.975L240.546,290.318,198.4,332.385v48.368a15.852,15.852,0,0,1-4.637,11.2s-27.741,27.86-31.466,31.466a15.672,15.672,0,0,1-5.509,3.725,15.852,15.852,0,0,1-20.627-8.619l-.119-.3-29.128-72.84L33.936,316.2a15.852,15.852,0,0,1-5.33-25.918l31.7-31.7a15.852,15.852,0,0,1,11.275-4.637h48.348l42.146-42.146-131-87.344a15.852,15.852,0,0,1-2.417-24.412L76.221,52.48a15.852,15.852,0,0,1,16.625-3.686l170.289,61.922L325.611,48.24a55.485,55.485,0,1,1,78.467,78.467L341.6,189.183Z" transform="translate(-22.15 -30.16)" fill="url(#linear-gradient)"/>
  </g>
</svg>
