<svg xmlns="http://www.w3.org/2000/svg" xmlns:xlink="http://www.w3.org/1999/xlink" width="400" height="400" viewBox="0 0 400 400">
  <defs>
    <linearGradient id="linear-gradient" x1="0.034" y1="0.965" x2="0.821" y2="0.172" gradientUnits="objectBoundingBox">
      <stop offset="0" stop-color="#a3bdff"/>
      <stop offset="1" stop-color="#00247e"/>
    </linearGradient>
    <clipPath id="clip-Zeichenfläche_5">
      <rect width="400" height="400"/>
    </clipPath>
  </defs>
  <g id="Zeichenfläche_5" data-name="Zeichenfläche – 5" clip-path="url(#clip-Zeichenfläche_5)">
    <path id="Pfad_56" data-name="Pfad 56" d="M264.524,239.541a10.047,10.047,0,0,1-2.336,10.536l-30.14,30.14a10.046,10.046,0,0,1-7.108,2.951,8.906,8.906,0,0,1-.992,0,10.046,10.046,0,0,1-7.372-4.421l-55.344-83.035L134.52,222.374v30.655a10.047,10.047,0,0,1-2.939,7.1S114,277.781,111.639,280.067a9.933,9.933,0,0,1-3.491,2.361,10.047,10.047,0,0,1-13.073-5.463L95,276.776,76.539,230.612l-46.252-18.5a10.047,10.047,0,0,1-3.378-16.426L47,175.594a10.047,10.047,0,0,1,7.146-2.939H84.789L111.5,145.944,28.478,90.587a10.047,10.047,0,0,1-1.532-15.472l30.14-30.14A10.047,10.047,0,0,1,67.622,42.64L175.548,81.884l39.6-39.6a35.165,35.165,0,1,1,49.731,49.731l-39.6,39.6Z" transform="translate(50.427 42.414)" fill="url(#linear-gradient)"/>
  </g>
</svg>
