<svg xmlns="http://www.w3.org/2000/svg" xmlns:xlink="http://www.w3.org/1999/xlink" width="400" height="400" viewBox="0 0 400 400">
  <defs>
    <filter id="Pfad_44" x="-16.129" y="-2.672" width="467.949" height="405.345" filterUnits="userSpaceOnUse">
      <feOffset dy="3" input="SourceAlpha"/>
      <feGaussianBlur stdDeviation="3" result="blur"/>
      <feFlood flood-opacity="0.502" result="color"/>
      <feComposite operator="out" in="SourceGraphic" in2="blur"/>
      <feComposite operator="in" in="color"/>
      <feComposite operator="in" in2="SourceGraphic"/>
    </filter>
    <clipPath id="clip-Zeichenfläche_1">
      <rect width="400" height="400"/>
    </clipPath>
  </defs>
  <g id="Zeichenfläche_1" data-name="Zeichenfläche – 1" clip-path="url(#clip-Zeichenfläche_1)">
    <g data-type="innerShadowGroup">
      <path id="Pfad_44-2" data-name="Pfad 44" d="M400.2,259.093a1.117,1.117,0,0,0,0-.229L373.352,120.986v-.295A98.416,98.416,0,0,0,276.624,40H132.293a98.088,98.088,0,0,0-96.646,81.117L8.929,258.863a1.115,1.115,0,0,0,0,.229,58.971,58.971,0,0,0,99.759,51.943l.573-.606,65.015-73.861h60.609l65.048,73.861c.18.213.377.409.573.606a58.93,58.93,0,0,0,99.677-51.943ZM165.235,157.941h-13.1v13.1a13.1,13.1,0,1,1-26.209,0v-13.1h-13.1a13.1,13.1,0,0,1,0-26.209h13.1v-13.1a13.1,13.1,0,1,1,26.209,0v13.1h13.1a13.1,13.1,0,0,1,0,26.209Zm65.523-13.1a13.1,13.1,0,0,1,13.1-13.1h39.314a13.1,13.1,0,0,1,0,26.209H243.862A13.1,13.1,0,0,1,230.758,144.837Zm138.2,143.282A32.5,32.5,0,0,1,347.831,301.6a32.909,32.909,0,0,1-28.617-8.829l-49.47-56.2h6.88a98.29,98.29,0,0,0,83.549-46.5l14.31,73.725A32.467,32.467,0,0,1,368.962,288.119Z" transform="translate(88.608 -43.007) rotate(20)" fill="#ea4235"/>
      <g transform="matrix(1, 0, 0, 1, 0, 0)" filter="url(#Pfad_44)">
        <path id="Pfad_44-3" data-name="Pfad 44" d="M400.2,259.093a1.117,1.117,0,0,0,0-.229L373.352,120.986v-.295A98.416,98.416,0,0,0,276.624,40H132.293a98.088,98.088,0,0,0-96.646,81.117L8.929,258.863a1.115,1.115,0,0,0,0,.229,58.971,58.971,0,0,0,99.759,51.943l.573-.606,65.015-73.861h60.609l65.048,73.861c.18.213.377.409.573.606a58.93,58.93,0,0,0,99.677-51.943ZM165.235,157.941h-13.1v13.1a13.1,13.1,0,1,1-26.209,0v-13.1h-13.1a13.1,13.1,0,0,1,0-26.209h13.1v-13.1a13.1,13.1,0,1,1,26.209,0v13.1h13.1a13.1,13.1,0,0,1,0,26.209Zm65.523-13.1a13.1,13.1,0,0,1,13.1-13.1h39.314a13.1,13.1,0,0,1,0,26.209H243.862A13.1,13.1,0,0,1,230.758,144.837Zm138.2,143.282A32.5,32.5,0,0,1,347.831,301.6a32.909,32.909,0,0,1-28.617-8.829l-49.47-56.2h6.88a98.29,98.29,0,0,0,83.549-46.5l14.31,73.725A32.467,32.467,0,0,1,368.962,288.119Z" transform="translate(88.61 -43.01) rotate(20)" fill="#fff"/>
      </g>
    </g>
  </g>
</svg>
