<svg xmlns="http://www.w3.org/2000/svg" xmlns:xlink="http://www.w3.org/1999/xlink" width="400" height="400" viewBox="0 0 400 400">
  <defs>
    <linearGradient id="linear-gradient" x1="0.868" y1="0.053" x2="0.038" y2="0.981" gradientUnits="objectBoundingBox">
      <stop offset="0" stop-color="#237400"/>
      <stop offset="1" stop-color="#38d963"/>
    </linearGradient>
    <clipPath id="clip-Zeichenfläche_2">
      <rect width="400" height="400"/>
    </clipPath>
  </defs>
  <g id="Zeichenfläche_2" data-name="Zeichenfläche – 2" clip-path="url(#clip-Zeichenfläche_2)">
    <path id="Pfad_51" data-name="Pfad 51" d="M352.8,45.761a13.641,13.641,0,0,0-12.822-12.822C210.174,25.317,106.2,64.4,61.866,137.715A148.5,148.5,0,0,0,40.11,221.264a173.441,173.441,0,0,0,11.322,54.9A6.82,6.82,0,0,0,62.7,278.605L207.633,131.458a13.648,13.648,0,1,1,19.3,19.3L68.55,311.53,44.355,335.725a13.982,13.982,0,0,0-1.023,18.926,13.641,13.641,0,0,0,19.966.733l28.628-28.628c24.11,11.663,48.441,18.023,72.568,18.875q2.848.1,5.678.1a148.223,148.223,0,0,0,77.854-21.859C321.344,279.543,360.442,175.585,352.8,45.761Z" transform="matrix(1, 0.017, -0.017, 1, 6.577, 0.906)" fill="url(#linear-gradient)"/>
  </g>
</svg>
