<svg xmlns="http://www.w3.org/2000/svg" xmlns:xlink="http://www.w3.org/1999/xlink" width="400" height="400" viewBox="0 0 400 400">
  <defs>
    <linearGradient id="linear-gradient" x1="0.868" y1="0.053" x2="0.038" y2="0.981" gradientUnits="objectBoundingBox">
      <stop offset="0" stop-color="#237400"/>
      <stop offset="1" stop-color="#38d963"/>
    </linearGradient>
    <clipPath id="clip-Zeichenfläche_2">
      <rect width="400" height="400"/>
    </clipPath>
  </defs>
  <g id="Zeichenfläche_2" data-name="Zeichenfläche – 2" clip-path="url(#clip-Zeichenfläche_2)">
    <path id="Pfad_51" data-name="Pfad 51" d="M261.522,41.745a9.66,9.66,0,0,0-9.081-9.081c-91.929-5.4-165.563,22.279-196.959,74.2a105.163,105.163,0,0,0-15.408,59.169,122.83,122.83,0,0,0,8.018,38.882,4.83,4.83,0,0,0,7.982,1.727L158.714,102.435A9.666,9.666,0,1,1,172.383,116.1L60.216,229.961,43.081,247.1a9.9,9.9,0,0,0-.725,13.4,9.66,9.66,0,0,0,14.14.519l20.274-20.274c17.074,8.259,34.306,12.763,51.392,13.367q2.017.072,4.021.072A104.97,104.97,0,0,0,187.32,238.7C239.243,207.308,266.932,133.686,261.522,41.745Z" transform="matrix(1, 0.017, -0.017, 1, 51.515, 49.463)" fill="url(#linear-gradient)"/>
  </g>
</svg>
