<svg xmlns="http://www.w3.org/2000/svg" xmlns:xlink="http://www.w3.org/1999/xlink" width="400" height="400" viewBox="0 0 400 400">
  <defs>
    <clipPath id="clip-Zeichenfläche_1">
      <rect width="400" height="400"/>
    </clipPath>
  </defs>
  <g id="Zeichenfläche_1" data-name="Zeichenfläche – 1" clip-path="url(#clip-Zeichenfläche_1)">
    <path id="Rechteck_135" data-name="Rechteck 135" d="M35,0H49.39a0,0,0,0,1,0,0V66.439a35,35,0,0,1-35,35H0a0,0,0,0,1,0,0V35A35,35,0,0,1,35,0Z" transform="translate(117.673 134.245)" fill="#fbbc05"/>
    <path id="Rechteck_136" data-name="Rechteck 136" d="M35,0H49.39a0,0,0,0,1,0,0V44.994a35,35,0,0,1-35,35H0a0,0,0,0,1,0,0V35A35,35,0,0,1,35,0Z" transform="translate(117.674 242.217)" fill="#4285f4"/>
    <path id="Rechteck_137" data-name="Rechteck 137" d="M0,0H13.883a35,35,0,0,1,35,35v69.411a0,0,0,0,1,0,0H35a35,35,0,0,1-35-35V0A0,0,0,0,1,0,0Z" transform="translate(282.326 169.656) rotate(90)" fill="#34a853"/>
    <path id="Rechteck_138" data-name="Rechteck 138" d="M35,0H48.883a0,0,0,0,1,0,0V127.964a35,35,0,0,1-35,35H0a0,0,0,0,1,0,0V35A35,35,0,0,1,35,0Z" transform="translate(282.327 77.789) rotate(90)" fill="#ea4235"/>
  </g>
</svg>
