<svg xmlns="http://www.w3.org/2000/svg" xmlns:xlink="http://www.w3.org/1999/xlink" width="400" height="400" viewBox="0 0 400 400">
  <defs>
    <clipPath id="clip-Zeichenfläche_1">
      <rect width="400" height="400"/>
    </clipPath>
  </defs>
  <g id="Zeichenfläche_1" data-name="Zeichenfläche – 1" clip-path="url(#clip-Zeichenfläche_1)">
    <path id="Rechteck_135" data-name="Rechteck 135" d="M35,0H59.532a0,0,0,0,1,0,0V87.27a35,35,0,0,1-35,35H0a0,0,0,0,1,0,0V35A35,35,0,0,1,35,0Z" transform="translate(100.767 118.979)" fill="#fbbc05"/>
    <path id="Rechteck_136" data-name="Rechteck 136" d="M35,0H59.532a0,0,0,0,1,0,0V70.421a35,35,0,0,1-35,35H0a0,0,0,0,1,0,0V35A35,35,0,0,1,35,0Z" transform="translate(100.767 254.355)" fill="#4285f4"/>
    <path id="Rechteck_137" data-name="Rechteck 137" d="M0,0H24.532a35,35,0,0,1,35,35v84.156a0,0,0,0,1,0,0H35a35,35,0,0,1-35-35V0A0,0,0,0,1,0,0Z" transform="translate(292.089 162.103) rotate(90)" fill="#34a853"/>
    <path id="Rechteck_138" data-name="Rechteck 138" d="M35,0H59.532a0,0,0,0,1,0,0V163.465a35,35,0,0,1-35,35H0a0,0,0,0,1,0,0V35A35,35,0,0,1,35,0Z" transform="translate(299.233 40.224) rotate(90)" fill="#ea4235"/>
  </g>
</svg>
