<svg xmlns="http://www.w3.org/2000/svg" xmlns:xlink="http://www.w3.org/1999/xlink" width="400" height="400" viewBox="0 0 400 400">
  <defs>
    <filter id="Rechteck_95">
      <feOffset dy="3" input="SourceAlpha"/>
      <feGaussianBlur stdDeviation="3" result="blur"/>
      <feFlood flood-opacity="0.322" result="color"/>
      <feComposite operator="out" in="SourceGraphic" in2="blur"/>
      <feComposite operator="in" in="color"/>
      <feComposite operator="in" in2="SourceGraphic"/>
    </filter>
    <filter id="Ellipse_8">
      <feOffset dy="3" input="SourceAlpha"/>
      <feGaussianBlur stdDeviation="3" result="blur-2"/>
      <feFlood flood-opacity="0.412" result="color-2"/>
      <feComposite operator="out" in="SourceGraphic" in2="blur-2"/>
      <feComposite operator="in" in="color-2"/>
      <feComposite operator="in" in2="SourceGraphic"/>
    </filter>
    <clipPath id="clip-Zeichenfläche_1">
      <rect width="400" height="400"/>
    </clipPath>
  </defs>
  <g id="Zeichenfläche_1" data-name="Zeichenfläche – 1" clip-path="url(#clip-Zeichenfläche_1)">
    <g id="Pfad_50" data-name="Pfad 50" transform="matrix(0.985, 0.174, -0.174, 0.985, 118.035, -6.576)" fill="#f6f6f6">
      <path d="M37-.373,146.463.489,248.053,106.1h0l2.078,230.948c.141,21.577-16.609,38.955-37.412,38.814L39.451,374.692c-20.8-.141-37.781-17.747-37.922-39.324L-.41,38.441C-.551,16.864,16.2-.514,37-.373Z" stroke="none"/>
      <path d="M 36.750244140625 3.6260986328125 C 28.07119750976562 3.6260986328125 19.87814331054688 7.061737060546875 13.68034362792969 13.30007934570312 C 10.49580383300781 16.50552368164062 7.999603271484375 20.27447509765625 6.261199951171875 24.50222778320312 C 4.456802368164062 28.890380859375 3.557952880859375 33.5712890625 3.589553833007812 38.41482543945312 L 5.528945922851562 335.3410949707031 C 5.560043334960938 340.0976867675781 6.487396240234375 344.7158203125 8.285293579101562 349.0673217773438 C 10.02033996582031 353.2665405273438 12.48849487304688 357.0428771972656 15.62120056152344 360.2914428710938 C 18.74429321289062 363.530029296875 22.36859130859375 366.0786437988281 26.39334106445312 367.8664855957031 C 30.54454040527344 369.7104797363281 34.94694519042969 370.6610412597656 39.4783935546875 370.6917419433594 L 212.7457427978516 371.8656005859375 C 212.82080078125 371.8660888671875 212.895751953125 371.8663330078125 212.9706420898438 371.8663330078125 C 221.6504974365234 371.8663330078125 229.8437957763672 368.4308776855469 236.0412902832031 362.1927795410156 C 239.2256927490234 358.9874877929688 241.7217407226562 355.2186279296875 243.4600524902344 350.9908752441406 C 245.2630920410156 346.6056213378906 246.1618347167969 341.927978515625 246.1315002441406 337.0874328613281 L 244.0678558349609 107.7301025390625 L 144.7480773925781 4.476104736328125 L 36.97329711914062 3.6268310546875 C 36.89779663085938 3.62628173828125 36.82565307617188 3.6260986328125 36.750244140625 3.6260986328125 M 36.750244140625 -0.3739013671875 C 36.83517456054688 -0.3739013671875 36.91642761230469 -0.373626708984375 37.00149536132812 -0.373077392578125 L 146.4634399414062 0.489471435546875 L 248.0533905029297 106.1035766601562 C 248.0533905029297 106.1035766601562 248.0533905029297 106.1017761230469 248.0533599853516 106.0985107421875 C 248.0533752441406 106.1001892089844 248.0533905029297 106.1018676757812 248.0533905029297 106.1035766601562 L 250.13134765625 337.0514221191406 C 250.2722473144531 358.6287231445312 233.5228729248047 376.0063781738281 212.7194976806641 375.865478515625 L 39.4512939453125 374.691650390625 C 18.64834594726562 374.5506896972656 1.669998168945312 356.9445495605469 1.529052734375 335.3672485351562 L -0.4103546142578125 38.44097900390625 C -0.5506744384765625 16.95187377929688 16.06564331054688 -0.3739013671875 36.750244140625 -0.3739013671875 Z M 248.0520477294922 105.8966979980469 C 248.0520477294922 105.8966979980469 248.0520477294922 105.8967590332031 248.0520477294922 105.8968505859375 C 248.0520477294922 105.8967590332031 248.0520477294922 105.8966979980469 248.0520477294922 105.8966979980469 Z M 248.0520477294922 105.8968505859375 C 248.0520477294922 105.8969421386719 248.0520477294922 105.8970947265625 248.0520477294922 105.8972778320312 C 248.0520477294922 105.8970947265625 248.0520477294922 105.8969421386719 248.0520477294922 105.8968505859375 Z M 248.0520477294922 105.8972778320312 C 248.0520477294922 105.8972778320312 248.0520477294922 105.8972778320312 248.0520477294922 105.8972778320312 C 248.0520477294922 105.8972778320312 248.0520477294922 105.8972778320312 248.0520477294922 105.8972778320312 Z M 248.0520477294922 105.8972778320312 C 248.0520477294922 105.8974304199219 248.0520477294922 105.8976135253906 248.0520477294922 105.8978271484375 C 248.0520477294922 105.8976135253906 248.0520477294922 105.8974304199219 248.0520477294922 105.8972778320312 Z M 248.0520477294922 105.8978271484375 C 248.0520477294922 105.8979187011719 248.0520477294922 105.8980407714844 248.0520477294922 105.8981628417969 C 248.0520477294922 105.8980407714844 248.0520477294922 105.8979187011719 248.0520477294922 105.8978271484375 Z M 248.0520477294922 105.8981628417969 C 248.0520477294922 105.8982238769531 248.0520477294922 105.8982849121094 248.0520477294922 105.8983459472656 C 248.0520477294922 105.8982849121094 248.0520477294922 105.8982238769531 248.0520477294922 105.8981628417969 Z M 248.0520477294922 105.8983459472656 C 248.0520477294922 105.8985900878906 248.0520477294922 105.8988342285156 248.0520629882812 105.8991088867188 C 248.0520477294922 105.8988342285156 248.0520477294922 105.8985900878906 248.0520477294922 105.8983459472656 Z M 248.0520629882812 105.8991088867188 C 248.0520629882812 105.8997802734375 248.0520629882812 105.9005737304688 248.0520782470703 105.9015502929688 C 248.0520629882812 105.9006042480469 248.0520629882812 105.8997802734375 248.0520629882812 105.8991088867188 Z M 248.0520782470703 105.9015502929688 C 248.0520782470703 105.9018249511719 248.0520782470703 105.9021301269531 248.0520782470703 105.9024353027344 C 248.0520782470703 105.9021301269531 248.0520782470703 105.9018249511719 248.0520782470703 105.9015502929688 Z M 248.0520782470703 105.9024353027344 C 248.0520782470703 105.9024658203125 248.0520782470703 105.9024658203125 248.0520782470703 105.9024963378906 C 248.0520782470703 105.9024658203125 248.0520782470703 105.9024658203125 248.0520782470703 105.9024353027344 Z M 248.0520782470703 105.9024963378906 C 248.0520935058594 105.9037170410156 248.0520935058594 105.9050598144531 248.0521087646484 105.9066162109375 C 248.0520935058594 105.9050598144531 248.0520935058594 105.9036865234375 248.0520782470703 105.9024963378906 Z M 248.0521087646484 105.9066162109375 C 248.0521087646484 105.906982421875 248.0521087646484 105.9073486328125 248.0521087646484 105.9077453613281 C 248.0521087646484 105.9073486328125 248.0521087646484 105.906982421875 248.0521087646484 105.9066162109375 Z M 248.0521087646484 105.9077453613281 C 248.0521087646484 105.9078369140625 248.0521087646484 105.9078979492188 248.0521087646484 105.907958984375 C 248.0521087646484 105.9078979492188 248.0521087646484 105.9078369140625 248.0521087646484 105.9077453613281 Z M 248.0521087646484 105.907958984375 C 248.0521240234375 105.9083557128906 248.0521240234375 105.9087524414062 248.0521240234375 105.9091491699219 C 248.0521240234375 105.9087524414062 248.0521240234375 105.9083557128906 248.0521087646484 105.907958984375 Z M 248.0521240234375 105.9091491699219 C 248.0521240234375 105.9093017578125 248.0521240234375 105.909423828125 248.0521240234375 105.9095764160156 C 248.0521240234375 105.909423828125 248.0521240234375 105.9093017578125 248.0521240234375 105.9091491699219 Z M 248.0521240234375 105.9095764160156 C 248.0521240234375 105.9100646972656 248.0521240234375 105.9105834960938 248.0521392822266 105.9111022949219 C 248.0521240234375 105.9105834960938 248.0521240234375 105.9100646972656 248.0521240234375 105.9095764160156 Z M 248.0521392822266 105.9111022949219 C 248.0521545410156 105.9132080078125 248.0521697998047 105.91552734375 248.0521850585938 105.9180297851562 C 248.0521697998047 105.9154663085938 248.0521545410156 105.9131469726562 248.0521392822266 105.9111022949219 Z M 248.0521850585938 105.9180297851562 C 248.0521850585938 105.9180603027344 248.0521850585938 105.9180603027344 248.0521850585938 105.9180908203125 C 248.0521850585938 105.9180603027344 248.0521850585938 105.9180297851562 248.0521850585938 105.9180297851562 Z M 248.0521850585938 105.9180908203125 C 248.0521850585938 105.9188537597656 248.0521850585938 105.919677734375 248.0522003173828 105.9205017089844 C 248.0521850585938 105.919677734375 248.0521850585938 105.9188537597656 248.0521850585938 105.9180908203125 Z M 248.0522003173828 105.9205017089844 C 248.0522003173828 105.9214782714844 248.0522155761719 105.9224548339844 248.0522155761719 105.9234924316406 C 248.0522155761719 105.9224853515625 248.0522003173828 105.9214782714844 248.0522003173828 105.9205017089844 Z M 248.0522155761719 105.9234924316406 C 248.0522155761719 105.9237976074219 248.0522155761719 105.9241027832031 248.0522155761719 105.9244079589844 C 248.0522155761719 105.9241027832031 248.0522155761719 105.9237976074219 248.0522155761719 105.9234924316406 Z M 248.0522155761719 105.9244079589844 C 248.0522155761719 105.9245300292969 248.0522308349609 105.9246520996094 248.0522308349609 105.9247741699219 C 248.0522308349609 105.9246520996094 248.0522155761719 105.9245300292969 248.0522155761719 105.9244079589844 Z M 248.0522308349609 105.9247741699219 C 248.0522308349609 105.9266052246094 248.05224609375 105.9284973144531 248.0522613525391 105.9304504394531 C 248.05224609375 105.928466796875 248.0522308349609 105.9265747070312 248.0522308349609 105.9247741699219 Z M 248.0522613525391 105.9304504394531 C 248.0522613525391 105.93115234375 248.0522766113281 105.931884765625 248.0522766113281 105.9326171875 C 248.0522766113281 105.931884765625 248.0522613525391 105.93115234375 248.0522613525391 105.9304504394531 Z M 248.0522766113281 105.9326171875 C 248.0522766113281 105.9326782226562 248.0522766113281 105.9327392578125 248.0522766113281 105.9328002929688 C 248.0522766113281 105.9327392578125 248.0522766113281 105.9326782226562 248.0522766113281 105.9326171875 Z M 248.0522766113281 105.9328002929688 C 248.0523071289062 105.9376220703125 248.0523376464844 105.9429016113281 248.0523834228516 105.9488220214844 C 248.0523376464844 105.9431762695312 248.0523071289062 105.9378051757812 248.0522766113281 105.9328002929688 Z M 248.0523834228516 105.9488220214844 C 248.0523834228516 105.9495544433594 248.0523986816406 105.9503173828125 248.0523986816406 105.9510803222656 C 248.0523986816406 105.9503173828125 248.0523834228516 105.9495544433594 248.0523834228516 105.9488220214844 Z M 248.0523986816406 105.9510803222656 C 248.0523986816406 105.9515686035156 248.0523986816406 105.9520568847656 248.0524139404297 105.9525451660156 C 248.0523986816406 105.9520568847656 248.0523986816406 105.9515686035156 248.0523986816406 105.9510803222656 Z M 248.0524139404297 105.9525451660156 C 248.0524139404297 105.9530334472656 248.0524139404297 105.9535217285156 248.0524139404297 105.9539794921875 C 248.0524139404297 105.9534912109375 248.0524139404297 105.9530334472656 248.0524139404297 105.9525451660156 Z M 248.0524139404297 105.9539794921875 C 248.0524291992188 105.9550170898438 248.0524291992188 105.9560241699219 248.0524291992188 105.9570617675781 C 248.0524291992188 105.9560241699219 248.0524291992188 105.9550170898438 248.0524139404297 105.9539794921875 Z M 248.0524291992188 105.9570617675781 C 248.0524444580078 105.9574890136719 248.0524444580078 105.9579162597656 248.0524444580078 105.9583435058594 C 248.0524444580078 105.9579162597656 248.0524444580078 105.9574890136719 248.0524291992188 105.9570617675781 Z M 248.0524444580078 105.9583435058594 C 248.0524444580078 105.9586181640625 248.0524444580078 105.9589538574219 248.0524444580078 105.9592590332031 C 248.0524444580078 105.9589538574219 248.0524444580078 105.9586486816406 248.0524444580078 105.9583435058594 Z M 248.0524444580078 105.9592590332031 C 248.0524597167969 105.9605712890625 248.0524749755859 105.9618835449219 248.0524749755859 105.9632263183594 C 248.0524749755859 105.9618835449219 248.0524597167969 105.9605407714844 248.0524444580078 105.9592590332031 Z M 248.0524749755859 105.9632263183594 C 248.0524749755859 105.9633178710938 248.0524749755859 105.96337890625 248.0524749755859 105.9634704589844 C 248.0524749755859 105.9634094238281 248.0524749755859 105.9633178710938 248.0524749755859 105.9632263183594 Z M 248.0524749755859 105.9634704589844 C 248.052490234375 105.9649353027344 248.052490234375 105.9663696289062 248.0525054931641 105.9678649902344 C 248.052490234375 105.9663696289062 248.052490234375 105.9649047851562 248.0524749755859 105.9634704589844 Z M 248.0525054931641 105.9678649902344 C 248.0525054931641 105.9687805175781 248.0525207519531 105.9697570800781 248.0525207519531 105.970703125 C 248.0525207519531 105.9697570800781 248.0525054931641 105.9688110351562 248.0525054931641 105.9678649902344 Z M 248.0525207519531 105.970703125 C 248.0525512695312 105.9749450683594 248.0525817871094 105.9792175292969 248.0526123046875 105.9835815429688 C 248.0525817871094 105.9790954589844 248.0525512695312 105.9747924804688 248.0525207519531 105.970703125 Z M 248.0526123046875 105.9835815429688 C 248.0526123046875 105.984130859375 248.0526123046875 105.9847106933594 248.0526275634766 105.9852905273438 C 248.0526123046875 105.9847106933594 248.0526123046875 105.984130859375 248.0526123046875 105.9835815429688 Z M 248.0526275634766 105.9852905273438 C 248.0526275634766 105.9855041503906 248.0526275634766 105.9857482910156 248.0526275634766 105.9859924316406 C 248.0526275634766 105.9857482910156 248.0526275634766 105.9855346679688 248.0526275634766 105.9852905273438 Z M 248.0526275634766 105.9859924316406 C 248.0526275634766 105.9864807128906 248.0526275634766 105.9869995117188 248.0526428222656 105.9875183105469 C 248.0526275634766 105.9869995117188 248.0526275634766 105.9865112304688 248.0526275634766 105.9859924316406 Z M 248.0526428222656 105.9875183105469 C 248.0526428222656 105.9880065917969 248.0526428222656 105.988525390625 248.0526428222656 105.989013671875 C 248.0526428222656 105.9884948730469 248.0526428222656 105.9880065917969 248.0526428222656 105.9875183105469 Z M 248.0526428222656 105.989013671875 C 248.0526428222656 105.9891357421875 248.0526428222656 105.9892578125 248.0526428222656 105.9893798828125 C 248.0526428222656 105.9892578125 248.0526428222656 105.9891357421875 248.0526428222656 105.989013671875 Z M 248.0526428222656 105.9893798828125 C 248.0526580810547 105.9909362792969 248.0526733398438 105.9925231933594 248.0526733398438 105.9940795898438 C 248.0526733398438 105.9924926757812 248.0526580810547 105.9909362792969 248.0526428222656 105.9893798828125 Z M 248.0526733398438 105.9940795898438 C 248.0526733398438 105.9940795898438 248.0526733398438 105.9940795898438 248.0526733398438 105.9941101074219 C 248.0526733398438 105.9940795898438 248.0526733398438 105.9940795898438 248.0526733398438 105.9940795898438 Z M 248.0526733398438 105.9941101074219 C 248.0526885986328 105.9946594238281 248.0526885986328 105.9952087402344 248.0526885986328 105.9957275390625 C 248.0526885986328 105.9952087402344 248.0526885986328 105.99462890625 248.0526733398438 105.9941101074219 Z M 248.0526885986328 105.9957275390625 C 248.0526885986328 105.9962158203125 248.0526885986328 105.9966735839844 248.0527038574219 105.9971313476562 C 248.0526885986328 105.9966735839844 248.0526885986328 105.9962158203125 248.0526885986328 105.9957275390625 Z M 248.0527038574219 105.9971313476562 C 248.0527191162109 105.9991760253906 248.0527191162109 106.001220703125 248.052734375 106.0032348632812 C 248.0527191162109 106.0011596679688 248.0527191162109 105.9991455078125 248.0527038574219 105.9971313476562 Z M 248.052734375 106.0032348632812 C 248.0527496337891 106.0037536621094 248.0527496337891 106.0043029785156 248.0527496337891 106.0048522949219 C 248.0527496337891 106.0043029785156 248.0527496337891 106.0037841796875 248.052734375 106.0032348632812 Z M 248.0527496337891 106.0048522949219 C 248.0527496337891 106.0049133300781 248.0527496337891 106.0050048828125 248.0527496337891 106.0050659179688 C 248.0527496337891 106.0049743652344 248.0527496337891 106.0049438476562 248.0527496337891 106.0048522949219 Z M 248.0527496337891 106.0050659179688 C 248.0527496337891 106.0057067871094 248.0527648925781 106.0063781738281 248.0527648925781 106.0070495605469 C 248.0527648925781 106.0063781738281 248.0527496337891 106.0057373046875 248.0527496337891 106.0050659179688 Z M 248.0527648925781 106.0070495605469 C 248.0527648925781 106.0074462890625 248.0527648925781 106.0078430175781 248.0527648925781 106.0082397460938 C 248.0527648925781 106.0078430175781 248.0527648925781 106.0074462890625 248.0527648925781 106.0070495605469 Z M 248.0527648925781 106.0082397460938 C 248.0527801513672 106.0084533691406 248.0527801513672 106.0086669921875 248.0527801513672 106.0088806152344 C 248.0527801513672 106.0086669921875 248.0527801513672 106.0084533691406 248.0527648925781 106.0082397460938 Z M 248.0527801513672 106.0088806152344 C 248.0527801513672 106.0096435546875 248.0527801513672 106.0104064941406 248.0527954101562 106.0111694335938 C 248.0527801513672 106.0104064941406 248.0527801513672 106.0096435546875 248.0527801513672 106.0088806152344 Z M 248.0527954101562 106.0111694335938 C 248.0527954101562 106.0130615234375 248.0528106689453 106.0149536132812 248.0528259277344 106.0169067382812 C 248.0528106689453 106.0150146484375 248.0527954101562 106.0130920410156 248.0527954101562 106.0111694335938 Z M 248.0528259277344 106.0169067382812 C 248.0528259277344 106.01708984375 248.0528259277344 106.0172729492188 248.0528259277344 106.0174560546875 C 248.0528259277344 106.0172729492188 248.0528259277344 106.01708984375 248.0528259277344 106.0169067382812 Z M 248.0528259277344 106.0174560546875 C 248.0528411865234 106.0177917480469 248.0528411865234 106.0181579589844 248.0528411865234 106.0184631347656 C 248.0528411865234 106.0181274414062 248.0528411865234 106.0177917480469 248.0528259277344 106.0174560546875 Z M 248.0528411865234 106.0184631347656 C 248.0528411865234 106.0195007324219 248.0528564453125 106.0205078125 248.0528564453125 106.0215148925781 C 248.0528564453125 106.0205078125 248.0528411865234 106.0194702148438 248.0528411865234 106.0184631347656 Z M 248.0528564453125 106.0215148925781 C 248.0528564453125 106.0223083496094 248.0528717041016 106.0231018066406 248.0528717041016 106.02392578125 C 248.0528717041016 106.0231018066406 248.0528564453125 106.0223083496094 248.0528564453125 106.0215148925781 Z M 248.0528717041016 106.02392578125 C 248.0528717041016 106.0242004394531 248.0528717041016 106.0244750976562 248.0528869628906 106.0247802734375 C 248.0528717041016 106.0244750976562 248.0528717041016 106.0242004394531 248.0528717041016 106.02392578125 Z M 248.0528869628906 106.0247802734375 C 248.0528869628906 106.0260620117188 248.0529022216797 106.0273742675781 248.0529022216797 106.0286865234375 C 248.0529022216797 106.0273742675781 248.0528869628906 106.0260925292969 248.0528869628906 106.0247802734375 Z M 248.0529022216797 106.0286865234375 C 248.0529022216797 106.0289001464844 248.0529022216797 106.0291137695312 248.0529022216797 106.0293273925781 C 248.0529022216797 106.0291137695312 248.0529022216797 106.0289001464844 248.0529022216797 106.0286865234375 Z M 248.0529022216797 106.0293273925781 C 248.0529174804688 106.0303344726562 248.0529174804688 106.0313720703125 248.0529327392578 106.0324096679688 C 248.0529174804688 106.0313720703125 248.0529174804688 106.0303649902344 248.0529022216797 106.0293273925781 Z M 248.0529327392578 106.0324096679688 C 248.0529327392578 106.0328674316406 248.0529327392578 106.0333557128906 248.0529327392578 106.0338134765625 C 248.0529327392578 106.0333251953125 248.0529327392578 106.0328674316406 248.0529327392578 106.0324096679688 Z M 248.0529327392578 106.0338134765625 C 248.0529479980469 106.0348815917969 248.0529479980469 106.0359802246094 248.0529632568359 106.0370788574219 C 248.0529479980469 106.0359802246094 248.0529479980469 106.034912109375 248.0529327392578 106.0338134765625 Z M 248.0529632568359 106.0370788574219 C 248.0529632568359 106.0374755859375 248.0529632568359 106.0379028320312 248.0529632568359 106.038330078125 C 248.0529632568359 106.0379028320312 248.0529632568359 106.0374755859375 248.0529632568359 106.0370788574219 Z M 248.0529632568359 106.038330078125 C 248.0530090332031 106.0437622070312 248.0530395507812 106.0493469238281 248.0530853271484 106.0551452636719 C 248.0530395507812 106.0497741699219 248.0530090332031 106.0441589355469 248.0529632568359 106.038330078125 Z M 248.0530853271484 106.0551452636719 C 248.0530853271484 106.0554504394531 248.0530853271484 106.0557250976562 248.0530853271484 106.0559997558594 C 248.0530853271484 106.0557556152344 248.0530853271484 106.055419921875 248.0530853271484 106.0551452636719 Z M 248.0530853271484 106.0559997558594 C 248.0530853271484 106.0571899414062 248.0531005859375 106.0583801269531 248.0531005859375 106.0596008300781 C 248.0531005859375 106.0584106445312 248.0530853271484 106.0572204589844 248.0530853271484 106.0559997558594 Z M 248.0531005859375 106.0596008300781 C 248.0531005859375 106.0596618652344 248.0531158447266 106.0597534179688 248.0531158447266 106.0598449707031 C 248.0531158447266 106.0597534179688 248.0531005859375 106.0596923828125 248.0531005859375 106.0596008300781 Z M 248.0531158447266 106.0598449707031 C 248.0531158447266 106.0610656738281 248.0531311035156 106.0623168945312 248.0531311035156 106.0635375976562 C 248.0531311035156 106.0623168945312 248.0531158447266 106.0610961914062 248.0531158447266 106.0598449707031 Z M 248.0531311035156 106.0635375976562 C 248.0531311035156 106.0636596679688 248.0531311035156 106.0637817382812 248.0531311035156 106.0639343261719 C 248.0531311035156 106.0637817382812 248.0531311035156 106.0636596679688 248.0531311035156 106.0635375976562 Z M 248.0531311035156 106.0639343261719 C 248.0531463623047 106.0649719238281 248.0531463623047 106.0660095214844 248.0531616210938 106.0670776367188 C 248.0531463623047 106.0660400390625 248.0531463623047 106.0649719238281 248.0531311035156 106.0639343261719 Z M 248.0531616210938 106.0670776367188 C 248.0531616210938 106.0673522949219 248.0531616210938 106.0675964355469 248.0531616210938 106.06787109375 C 248.0531616210938 106.067626953125 248.0531616210938 106.0673217773438 248.0531616210938 106.0670776367188 Z M 248.0531616210938 106.06787109375 C 248.0531616210938 106.0682983398438 248.0531616210938 106.0686645507812 248.0531768798828 106.0690612792969 C 248.0531616210938 106.0686645507812 248.0531616210938 106.0682678222656 248.0531616210938 106.06787109375 Z M 248.0531768798828 106.0690612792969 C 248.0531768798828 106.0693359375 248.0531768798828 106.0696105957031 248.0531768798828 106.0698547363281 C 248.0531768798828 106.0696105957031 248.0531768798828 106.0693054199219 248.0531768798828 106.0690612792969 Z M 248.0531768798828 106.0698547363281 C 248.0531768798828 106.0701293945312 248.0531768798828 106.0703735351562 248.0531768798828 106.0706176757812 C 248.0531768798828 106.0703735351562 248.0531768798828 106.0700988769531 248.0531768798828 106.0698547363281 Z M 248.0531768798828 106.0706176757812 C 248.0531768798828 106.0710144042969 248.0531921386719 106.0713806152344 248.0531921386719 106.07177734375 C 248.0531921386719 106.0714111328125 248.0531768798828 106.0710144042969 248.0531768798828 106.0706176757812 Z M 248.0531921386719 106.07177734375 C 248.0532073974609 106.0738525390625 248.05322265625 106.0759582519531 248.05322265625 106.0780944824219 C 248.05322265625 106.0760803222656 248.0532073974609 106.073974609375 248.0531921386719 106.07177734375 Z M 248.05322265625 106.0780944824219 C 248.0532379150391 106.0785522460938 248.0532379150391 106.0790405273438 248.0532379150391 106.0795288085938 C 248.0532379150391 106.0790405273438 248.0532379150391 106.0785522460938 248.05322265625 106.0780944824219 Z M 248.0532379150391 106.0795288085938 C 248.0532379150391 106.0799255371094 248.0532379150391 106.080322265625 248.0532531738281 106.0807495117188 C 248.0532379150391 106.080322265625 248.0532379150391 106.0799255371094 248.0532379150391 106.0795288085938 Z M 248.0532531738281 106.0807495117188 C 248.0532531738281 106.0810241699219 248.0532531738281 106.0813293457031 248.0532531738281 106.0816040039062 C 248.0532531738281 106.0813293457031 248.0532531738281 106.0809936523438 248.0532531738281 106.0807495117188 Z M 248.0532531738281 106.0816040039062 C 248.0532531738281 106.0824890136719 248.0532684326172 106.0833435058594 248.0532684326172 106.0842590332031 C 248.0532684326172 106.0833740234375 248.0532531738281 106.08251953125 248.0532531738281 106.0816040039062 Z M 248.0532684326172 106.0842590332031 C 248.0532684326172 106.0845336914062 248.0532684326172 106.0847778320312 248.0532684326172 106.0850219726562 C 248.0532684326172 106.0848083496094 248.0532684326172 106.0845031738281 248.0532684326172 106.0842590332031 Z M 248.0532684326172 106.0850219726562 C 248.0532989501953 106.0881652832031 248.0533142089844 106.0912780761719 248.0533294677734 106.094482421875 C 248.0533142089844 106.0918273925781 248.0532989501953 106.0886535644531 248.0532684326172 106.0850219726562 Z M 248.0533294677734 106.094482421875 C 248.0533447265625 106.0946044921875 248.0533447265625 106.0947265625 248.0533447265625 106.0948486328125 C 248.0533447265625 106.0947570800781 248.0533447265625 106.0945739746094 248.0533294677734 106.094482421875 Z M 248.0533447265625 106.0948486328125 C 248.0533447265625 106.0960388183594 248.0533599853516 106.0971984863281 248.0533599853516 106.0984191894531 C 248.0533599853516 106.0973815917969 248.0533447265625 106.09619140625 248.0533447265625 106.0948486328125 Z M 248.0533599853516 106.0984191894531 C 248.0533599853516 106.0984497070312 248.0533599853516 106.0984802246094 248.0533599853516 106.0985107421875 C 248.0533599853516 106.0984802246094 248.0533599853516 106.0984497070312 248.0533599853516 106.0984191894531 Z" stroke="none" fill="rgba(112,112,112,0.32)"/>
    </g>
    <g data-type="innerShadowGroup">
      <rect id="Rechteck_95-2" data-name="Rechteck 95" width="323.544" height="31.999" rx="15.999" transform="matrix(0.985, 0.174, -0.174, 0.985, 51.861, 161.855)" fill="#ff9b9b"/>
      <g transform="matrix(1, 0, 0, 1, 0, 0)" filter="url(#Rechteck_95)">
        <rect id="Rechteck_95-3" data-name="Rechteck 95" width="323.544" height="31.999" rx="15.999" transform="matrix(0.98, 0.17, -0.17, 0.98, 51.86, 161.86)" fill="#fff"/>
      </g>
      <g id="Rechteck_95-4" data-name="Rechteck 95" transform="matrix(0.985, 0.174, -0.174, 0.985, 51.861, 161.855)" fill="none" stroke="#9a0000" stroke-linecap="round" stroke-width="4">
        <rect width="323.544" height="31.999" rx="15.999" stroke="none"/>
        <rect x="2" y="2" width="319.544" height="27.999" rx="13.999" fill="none"/>
      </g>
    </g>
    <g data-type="innerShadowGroup">
      <circle id="Ellipse_8-2" data-name="Ellipse 8" cx="37.009" cy="37.009" r="37.009" transform="translate(171.547 168.694)" fill="#d9ffbe"/>
      <g transform="matrix(1, 0, 0, 1, 0, 0)" filter="url(#Ellipse_8)">
        <circle id="Ellipse_8-3" data-name="Ellipse 8" cx="37.009" cy="37.009" r="37.009" transform="translate(171.55 168.69)" fill="#fff"/>
      </g>
      <g id="Ellipse_8-4" data-name="Ellipse 8" transform="translate(171.547 168.694)" fill="none" stroke="#1f5a00" stroke-width="4">
        <circle cx="37.009" cy="37.009" r="37.009" stroke="none"/>
        <circle cx="37.009" cy="37.009" r="35.009" fill="none"/>
      </g>
    </g>
    <g id="Pfad_49" data-name="Pfad 49" transform="matrix(0.985, 0.174, -0.174, 0.985, 262.135, 19.091)" fill="#f6f6f6">
      <path d="M 97.27072906494141 104.1279449462891 L 37.76511764526367 104.1279449462891 C 32.94604110717773 104.1279449462891 28.27140998840332 103.1457138061523 23.87105560302734 101.2085571289062 C 19.61434936523438 99.33463287353516 15.78970241546631 96.65013885498047 12.50336360931396 93.22963714599609 C 9.211626052856445 89.80354309082031 6.626779556274414 85.81278991699219 4.820625782012939 81.36826324462891 C 2.948994874954224 76.76261901855469 1.999994874000549 71.86830902099609 1.999994874000549 66.82129669189453 L 1.999994874000549 4.968371868133545 L 97.27072906494141 104.1279449462891 Z" stroke="none"/>
      <path d="M 4 9.936737060546875 L 4 66.8212890625 C 4 71.60895538330078 4.899482727050781 76.24992370605469 6.673469543457031 80.61530303955078 C 8.383705139160156 84.82377624511719 10.83038330078125 88.60163879394531 13.94557189941406 91.84398651123047 C 17.04998779296875 95.07511901855469 20.6605224609375 97.60995483398438 24.67688751220703 99.37807464599609 C 28.82170104980469 101.2027587890625 33.2252197265625 102.1279373168945 37.76510620117188 102.1279373168945 L 92.57564544677734 102.1279373168945 L 4 9.936737060546875 M 0 7.62939453125e-06 L 101.9658050537109 106.1279373168945 L 37.76510620117188 106.1279373168945 C 16.90802001953125 106.1279373168945 0 88.52975463867188 0 66.8212890625 L 0 7.62939453125e-06 Z" stroke="none" fill="#cbcbcb"/>
    </g>
  </g>
</svg>
