<svg xmlns="http://www.w3.org/2000/svg" xmlns:xlink="http://www.w3.org/1999/xlink" width="400" height="400" viewBox="0 0 400 400">
  <defs>
    <linearGradient id="linear-gradient" x1="0.783" y1="0.052" x2="0.042" y2="0.873" gradientUnits="objectBoundingBox">
      <stop offset="0"/>
      <stop offset="1" stop-color="#c7c7c7"/>
    </linearGradient>
    <clipPath id="clip-Zeichenfläche_1">
      <rect width="400" height="400"/>
    </clipPath>
  </defs>
  <g id="Zeichenfläche_1" data-name="Zeichenfläche – 1" clip-path="url(#clip-Zeichenfläche_1)">
    <path id="Pfad_75" data-name="Pfad 75" d="M86.154,162.462V285.538a15.385,15.385,0,0,1-15.385,15.385H55.385A15.385,15.385,0,0,1,40,285.538V162.462a15.385,15.385,0,0,1,15.385-15.385H70.769A15.385,15.385,0,0,1,86.154,162.462ZM147.692,24H132.308a15.385,15.385,0,0,0-15.385,15.385V408.615A15.385,15.385,0,0,0,132.308,424h15.385a15.385,15.385,0,0,0,15.385-15.385V39.385A15.385,15.385,0,0,0,147.692,24Zm76.923,61.538H209.231a15.385,15.385,0,0,0-15.385,15.385V347.077a15.385,15.385,0,0,0,15.385,15.385h15.385A15.385,15.385,0,0,0,240,347.077V100.923A15.385,15.385,0,0,0,224.615,85.538Zm76.923,61.538H286.154a15.385,15.385,0,0,0-15.385,15.385V285.538a15.385,15.385,0,0,0,15.385,15.385h15.385a15.385,15.385,0,0,0,15.385-15.385V162.462A15.385,15.385,0,0,0,301.539,147.077Zm76.923-30.769H363.077a15.385,15.385,0,0,0-15.385,15.385V316.308a15.385,15.385,0,0,0,15.385,15.385h15.385a15.385,15.385,0,0,0,15.385-15.385V131.692A15.385,15.385,0,0,0,378.462,116.308Z" transform="translate(-16.923 -24)" fill="url(#linear-gradient)"/>
  </g>
</svg>
