<svg xmlns="http://www.w3.org/2000/svg" xmlns:xlink="http://www.w3.org/1999/xlink" width="400" height="400" viewBox="0 0 400 400">
  <defs>
    <clipPath id="clip-Zeichenfläche_6">
      <rect width="400" height="400"/>
    </clipPath>
  </defs>
  <g id="Zeichenfläche_6" data-name="Zeichenfläche – 6" clip-path="url(#clip-Zeichenfläche_6)">
    <g id="Rechteck_90" data-name="Rechteck 90" transform="translate(0 120)" fill="#f4fbff" stroke="#01418d" stroke-width="8">
      <rect width="400" height="168" rx="84" stroke="none"/>
      <rect x="4" y="4" width="392" height="160" rx="80" fill="none"/>
    </g>
    <g id="Gruppe_20" data-name="Gruppe 20" transform="translate(261.818 144.38)">
      <rect id="Rechteck_84" data-name="Rechteck 84" width="119" height="120" transform="translate(0.182 -0.38)" fill="none"/>
      <rect id="Rechteck_85" data-name="Rechteck 85" width="87" height="78" rx="12" transform="translate(16.182 23.62)" fill="none" stroke="#00418d" stroke-linecap="round" stroke-linejoin="round" stroke-width="8"/>
      <rect id="Rechteck_86" data-name="Rechteck 86" width="51" height="19" rx="9.5" transform="translate(33.182 66.62)" fill="none" stroke="#00418d" stroke-linecap="round" stroke-linejoin="round" stroke-width="8"/>
      <line id="Linie_10" data-name="Linie 10" y2="19" transform="translate(65.182 66.62)" fill="none" stroke="#00418d" stroke-linecap="round" stroke-linejoin="round" stroke-width="8"/>
      <line id="Linie_11" data-name="Linie 11" y2="19" transform="translate(49.182 66.62)" fill="none" stroke="#00418d" stroke-linecap="round" stroke-linejoin="round" stroke-width="8"/>
      <line id="Linie_12" data-name="Linie 12" y1="16" transform="translate(58.182 7.62)" fill="none" stroke="#00418d" stroke-linecap="round" stroke-linejoin="round" stroke-width="8"/>
      <circle id="Ellipse_6" data-name="Ellipse 6" cx="3.71" cy="3.71" r="3.71" transform="translate(34.764 46.165)" fill="#01418d"/>
      <circle id="Ellipse_7" data-name="Ellipse 7" cx="3.71" cy="3.71" r="3.71" transform="translate(75.578 46.165)" fill="#01418d"/>
    </g>
    <g id="Gruppe_21" data-name="Gruppe 21" transform="translate(141.091 152.918)">
      <rect id="Rechteck_87" data-name="Rechteck 87" width="105" height="105" transform="translate(-0.091 0.082)" fill="none"/>
      <path id="Pfad_45" data-name="Pfad 45" d="M75.616,172.951a10.659,10.659,0,0,0,9.713,6.476,9.713,9.713,0,1,0,0-19.427H40" transform="translate(-23.569 -94.561)" fill="none" stroke="#00418d" stroke-linecap="round" stroke-linejoin="round" stroke-width="8"/>
      <path id="Pfad_46" data-name="Pfad 46" d="M53.14,54.476A10.659,10.659,0,0,1,62.853,48a9.713,9.713,0,1,1,0,19.427H24" transform="translate(-14.044 -27.89)" fill="none" stroke="#00418d" stroke-linecap="round" stroke-linejoin="round" stroke-width="8"/>
      <path id="Pfad_47" data-name="Pfad 47" d="M93.518,86.476A10.659,10.659,0,0,1,103.231,80a9.713,9.713,0,1,1,0,19.427H32" transform="translate(-18.806 -46.939)" fill="none" stroke="#00418d" stroke-linecap="round" stroke-linejoin="round" stroke-width="8"/>
    </g>
    <g id="Gruppe_22" data-name="Gruppe 22" transform="translate(18.909 141.533)">
      <rect id="Rechteck_88" data-name="Rechteck 88" width="125" height="125" transform="translate(0.091 0.467)" fill="none"/>
      <rect id="Rechteck_89" data-name="Rechteck 89" width="41" height="71" rx="20.5" transform="translate(42.091 10.467)" fill="none" stroke="#00418d" stroke-linecap="round" stroke-linejoin="round" stroke-width="8"/>
      <line id="Linie_13" data-name="Linie 13" y2="15" transform="translate(61.091 97.467)" fill="none" stroke="#00418d" stroke-linecap="round" stroke-linejoin="round" stroke-width="8"/>
      <path id="Pfad_48" data-name="Pfad 48" d="M125.81,128A34.905,34.905,0,1,1,56,128" transform="translate(-29.094 -66.461)" fill="none" stroke="#00418d" stroke-linecap="round" stroke-linejoin="round" stroke-width="8"/>
    </g>
  </g>
</svg>
