<svg xmlns="http://www.w3.org/2000/svg" xmlns:xlink="http://www.w3.org/1999/xlink" width="400" height="400" viewBox="0 0 400 400">
  <defs>
    <linearGradient id="linear-gradient" x1="0.845" y1="0.897" x2="-0.061" y2="0.059" gradientUnits="objectBoundingBox">
      <stop offset="0" stop-color="#213900"/>
      <stop offset="1" stop-color="#baff5c"/>
    </linearGradient>
    <clipPath id="clip-Zeichenfläche_1">
      <rect width="400" height="400"/>
    </clipPath>
  </defs>
  <g id="Zeichenfläche_1" data-name="Zeichenfläche – 1" clip-path="url(#clip-Zeichenfläche_1)">
    <path id="Pfad_75" data-name="Pfad 75" d="M344.57,286.237s-7.563-39.391,15.9-77.308c9.222-14.9,58.254-22.905,58.254-22.905l-29.8-17.746,51.058-45.827s-33.024,18.279-29.308,0c5.059-24.884,30.926-26.638,27.757-59.559,0,0-78.834,74.448-173.371,89.338V122.451C265.06,81.5,229.281,47.5,185.551,48c-31.509.343-59.945,17.769-72.89,44.669,0,0-13.058-18.93-31.223-25.24s-41.436,0-41.436,0,24.926,15.421,41.436,36.62c6.472,8.31-40.73-22.717-41.436-11.381-1.06,17.009,41.436,75.606,41.436,75.606,8.468,124.4,144.027,207.3,279.034,207.3,63.608,0,79.51-22.334,79.51-22.334S376.374,330.905,344.57,286.237Z" transform="translate(-39.981 -11.786)" fill="url(#linear-gradient)"/>
  </g>
</svg>
