<svg xmlns="http://www.w3.org/2000/svg" xmlns:xlink="http://www.w3.org/1999/xlink" width="128" height="128" viewBox="0 0 128 128">
  <defs>
    <clipPath id="clip-Icons">
      <rect width="128" height="128"/>
    </clipPath>
  </defs>
  <g id="Icons" clip-path="url(#clip-Icons)">
    <path id="Pfad_74" data-name="Pfad 74" d="M108.442,143.224a2.462,2.462,0,0,1-2.037,3.852H69.6a2.462,2.462,0,0,1-2.037-3.852,24.615,24.615,0,0,1,40.88,0ZM150.86,145.3a5.1,5.1,0,0,1-3.957,1.778H122.8a2.462,2.462,0,0,1-2.314-1.631,34.461,34.461,0,0,0-64.978,0,2.462,2.462,0,0,1-2.314,1.631H29.063a5.046,5.046,0,0,1-3.951-1.8,4.923,4.923,0,0,1-.037-6.2c.037-.043,4.7-6.018,9.3-17.674,4.246-10.757,9.311-28.7,9.311-53.1a44.308,44.308,0,0,1,88.615,0c0,24.394,5.065,42.338,9.311,53.1,4.6,11.655,9.268,17.631,9.311,17.686A4.923,4.923,0,0,1,150.86,145.3ZM63.383,75.692a7.385,7.385,0,1,0,7.385-7.385A7.385,7.385,0,0,0,63.383,75.692ZM112.1,95.643a4.923,4.923,0,0,0-6.6-2.2L88,102.191,70.509,93.44a4.925,4.925,0,0,0-4.4,8.812L85.8,112.1a4.923,4.923,0,0,0,4.4,0l19.692-9.846a4.923,4.923,0,0,0,2.2-6.609Zm.517-19.951a7.385,7.385,0,1,0-7.385,7.385A7.385,7.385,0,0,0,112.614,75.692Z" transform="translate(-23.997 -21.539)" fill="#4e4e4e"/>
  </g>
</svg>
