<svg xmlns="http://www.w3.org/2000/svg" xmlns:xlink="http://www.w3.org/1999/xlink" width="128" height="128" viewBox="0 0 128 128">
  <defs>
    <clipPath id="clip-Icons">
      <rect width="128" height="128"/>
    </clipPath>
  </defs>
  <g id="Icons" clip-path="url(#clip-Icons)">
    <path id="Pfad_74" data-name="Pfad 74" d="M82.933,106.667v34.427a5.076,5.076,0,0,1-6,5.247l-40.746-7.76A5.272,5.272,0,0,1,32,133.334V106.667a5.217,5.217,0,0,1,5.093-5.333H77.84A5.217,5.217,0,0,1,82.933,106.667ZM81.106,46.814a4.929,4.929,0,0,0-4.177-1.153L36.183,53.42A5.272,5.272,0,0,0,32,58.667V85.334a5.217,5.217,0,0,0,5.093,5.333H77.84a5.217,5.217,0,0,0,5.093-5.333V50.907a5.438,5.438,0,0,0-1.828-4.094Zm68.04,54.52H98.213a5.217,5.217,0,0,0-5.093,5.333v38.3a5.273,5.273,0,0,0,4.183,5.253l50.933,9.693a4.631,4.631,0,0,0,.91.087,5.217,5.217,0,0,0,5.093-5.333v-48A5.217,5.217,0,0,0,149.146,101.334Zm3.266-68.094a4.929,4.929,0,0,0-4.177-1.153L97.3,41.787a5.273,5.273,0,0,0-4.183,5.247v38.3a5.217,5.217,0,0,0,5.093,5.333h50.933a5.217,5.217,0,0,0,5.093-5.333v-48a5.438,5.438,0,0,0-1.828-4.094Z" transform="translate(-29.12 -32.001)" fill="#4e4e4e"/>
  </g>
</svg>
