<svg xmlns="http://www.w3.org/2000/svg" xmlns:xlink="http://www.w3.org/1999/xlink" width="128" height="128" viewBox="0 0 128 128">
  <defs>
    <clipPath id="clip-Icons">
      <rect width="128" height="128"/>
    </clipPath>
  </defs>
  <g id="Icons" clip-path="url(#clip-Icons)">
    <g id="logo-javascript">
      <path id="Pfad_14" data-name="Pfad 14" d="M0,0H128V128H0Z" fill="#f7df1e"/>
      <path id="Pfad_15" data-name="Pfad 15" d="M67.311,165.042l9.795-5.928c1.89,3.35,3.609,6.185,7.732,6.185,3.952,0,6.445-1.546,6.445-7.56v-40.9h12.029V157.91c0,12.458-7.3,18.129-17.958,18.129-9.622,0-15.208-4.983-18.044-11m42.535-1.288,9.794-5.671c2.579,4.211,5.929,7.3,11.857,7.3,4.984,0,8.163-2.492,8.163-5.929,0-4.124-3.265-5.585-8.764-7.99l-3.007-1.29c-8.678-3.693-14.435-8.333-14.435-18.128,0-9.022,6.874-15.9,17.614-15.9,7.647,0,13.146,2.664,17.1,9.623l-9.366,6.015c-2.062-3.694-4.3-5.155-7.733-5.155-3.523,0-5.757,2.234-5.757,5.155,0,3.608,2.234,5.07,7.389,7.3l3.007,1.289c10.225,4.382,15.981,8.85,15.981,18.9,0,10.827-8.506,16.755-19.934,16.755-11.17,0-18.387-5.327-21.91-12.287" transform="translate(-33.655 -58.076)"/>
    </g>
  </g>
</svg>
