<svg xmlns="http://www.w3.org/2000/svg" xmlns:xlink="http://www.w3.org/1999/xlink" width="128" height="128" viewBox="0 0 128 128">
  <defs>
    <clipPath id="clip-Icons">
      <rect width="128" height="128"/>
    </clipPath>
  </defs>
  <g id="Icons" clip-path="url(#clip-Icons)">
    <g id="java-14" transform="translate(16.282 -0.37)">
      <path id="Pfad_17" data-name="Pfad 17" d="M65.654,243.673s-4.891,2.844,3.481,3.807c10.143,1.157,15.327.991,26.5-1.124a46.14,46.14,0,0,0,7.043,3.439c-25.057,10.739-56.71-.622-37.028-6.121m-3.062-14.014s-5.486,4.061,2.893,4.928c10.835,1.118,19.392,1.209,34.2-1.642a15.18,15.18,0,0,0,5.268,3.212c-30.3,8.859-64.04.7-42.359-6.5" transform="translate(-34.734 -144.313)" fill="#5382a1"/>
      <path id="Pfad_18" data-name="Pfad 18" d="M134.325,105.974c6.174,7.108-1.622,13.5-1.622,13.5s15.677-8.093,8.477-18.227C134.455,91.8,129.3,87.1,157.215,70.914c0,0-43.82,10.944-22.89,35.059" transform="translate(-80.654 -44.4)" fill="#e76f00"/>
      <path id="Pfad_19" data-name="Pfad 19" d="M86.811,227.279s3.62,2.982-3.987,5.29c-14.463,4.382-60.2,5.7-72.9.175-4.567-1.986,4-4.744,6.692-5.323a17.36,17.36,0,0,1,4.415-.5c-5.079-3.578-32.829,7.026-14.1,10.062,51.089,8.285,93.13-3.731,79.878-9.708m-53.539-38.9s-23.263,5.526-8.238,7.532c6.344.849,18.991.657,30.771-.33,9.628-.812,19.295-2.539,19.295-2.539a40.843,40.843,0,0,0-5.851,3.131c-23.624,6.213-69.261,3.323-56.123-3.033,11.111-5.371,20.145-4.762,20.145-4.762M75,211.707c24.015-12.479,12.912-24.471,5.161-22.855a17.961,17.961,0,0,0-2.747.737,4.376,4.376,0,0,1,2.052-1.582c15.332-5.39,27.123,15.9-4.949,24.329a2.082,2.082,0,0,0,.483-.629" transform="translate(0 -117.554)" fill="#5382a1"/>
      <path id="Pfad_20" data-name="Pfad 20" d="M112.189.37s13.3,13.3-12.614,33.763c-20.78,16.411-4.739,25.768-.009,36.459-12.13-10.944-21.032-20.578-15.06-29.545C93.272,27.884,117.555,21.5,112.189.37" transform="translate(-51.663)" fill="#e76f00"/>
      <path id="Pfad_21" data-name="Pfad 21" d="M64.535,324.751c23.051,1.476,58.449-.819,59.287-11.726,0,0-1.611,4.135-19.051,7.419-19.675,3.7-43.94,3.27-58.333.9,0,0,2.946,2.438,18.1,3.41" transform="translate(-28.903 -196.783)" fill="#5382a1"/>
    </g>
  </g>
</svg>
