<svg xmlns="http://www.w3.org/2000/svg" xmlns:xlink="http://www.w3.org/1999/xlink" width="128" height="128" viewBox="0 0 128 128">
  <defs>
    <linearGradient id="linear-gradient" x1="0.13" y1="0.12" x2="0.796" y2="0.782" gradientUnits="objectBoundingBox">
      <stop offset="0" stop-color="#387eb8"/>
      <stop offset="1" stop-color="#366994"/>
    </linearGradient>
    <linearGradient id="linear-gradient-2" x1="0.191" y1="0.206" x2="0.907" y2="0.884" gradientUnits="objectBoundingBox">
      <stop offset="0" stop-color="#ffe052"/>
      <stop offset="1" stop-color="#ffc331"/>
    </linearGradient>
    <clipPath id="clip-Icons">
      <rect width="128" height="128"/>
    </clipPath>
  </defs>
  <g id="Icons" clip-path="url(#clip-Icons)">
    <g id="python-5-1" transform="translate(-0.145 0.261)">
      <path id="Pfad_12" data-name="Pfad 12" d="M63.684.072c-32.494,0-30.466,14.092-30.466,14.092l.036,14.6H64.263v4.383H20.938S.145,30.788.145,63.574,18.294,95.2,18.294,95.2H29.125V79.984s-.584-18.149,17.859-18.149H77.739s17.279.279,17.279-16.7V17.062S97.643.072,63.684.072ZM46.586,9.89a5.573,5.573,0,1,1-3.946,1.632A5.573,5.573,0,0,1,46.586,9.89Z" fill="url(#linear-gradient)"/>
      <path id="Pfad_13" data-name="Pfad 13" d="M97.526,159.453c32.494,0,30.466-14.092,30.466-14.092l-.036-14.6H96.946V126.38h43.325s20.793,2.358,20.793-30.429-18.149-31.624-18.149-31.624H132.085V79.54s.584,18.149-17.859,18.149H83.47s-17.279-.279-17.279,16.7v28.074s-2.624,16.99,31.335,16.99Zm17.1-9.817A5.574,5.574,0,1,1,118.571,148a5.573,5.573,0,0,1-3.946,1.633Z" transform="translate(-32.92 -32.047)" fill="url(#linear-gradient-2)"/>
    </g>
  </g>
</svg>
