<svg xmlns="http://www.w3.org/2000/svg" xmlns:xlink="http://www.w3.org/1999/xlink" width="128" height="128" viewBox="0 0 128 128">
  <defs>
    <linearGradient id="linear-gradient" x2="1" y2="1" gradientUnits="objectBoundingBox">
      <stop offset="0" stop-color="#cbced0"/>
      <stop offset="1" stop-color="#84838b"/>
    </linearGradient>
    <linearGradient id="linear-gradient-2" x2="1" y2="1" gradientUnits="objectBoundingBox">
      <stop offset="0" stop-color="#276dc3"/>
      <stop offset="1" stop-color="#165caa"/>
    </linearGradient>
    <clipPath id="clip-Icons">
      <rect width="128" height="128"/>
    </clipPath>
  </defs>
  <g id="Icons" clip-path="url(#clip-Icons)">
    <g id="Rlogo" transform="translate(-0.906 11.647)">
      <path id="Pfad_22" data-name="Pfad 22" d="M64.906,88.725c-35.346,0-64-19.19-64-42.863S29.56,3,64.906,3s64,19.19,64,42.863S100.252,88.725,64.906,88.725Zm9.8-68.967c-26.866,0-48.646,13.119-48.646,29.3s21.779,29.3,48.646,29.3S121.4,69.394,121.4,49.06,101.568,19.758,74.7,19.758Z" transform="translate(0)" fill-rule="evenodd" fill="url(#linear-gradient)"/>
      <path id="Pfad_23" data-name="Pfad 23" d="M342.732,192.711a48.2,48.2,0,0,1,6.124,2.308,11.846,11.846,0,0,1,3.106,2.219,8.385,8.385,0,0,1,1.42,2.041l15.266,25.739-24.674.011-11.538-21.667s-2.363-4.059-3.816-5.237c-1.213-.982-1.73-1.331-2.929-1.331h-5.862l0,28.219L298,225.022V152.938h43.844s19.97.36,19.97,19.359S342.732,192.711,342.732,192.711Zm-9.5-24.137-13.218-.009-.007,12.257,13.224,0s6.124-.019,6.124-6.235C339.359,168.242,333.235,168.574,333.235,168.574Z" transform="translate(-244.357 -123.323)" fill-rule="evenodd" fill="url(#linear-gradient-2)"/>
    </g>
  </g>
</svg>
