<svg xmlns="http://www.w3.org/2000/svg" xmlns:xlink="http://www.w3.org/1999/xlink" width="128" height="128" viewBox="0 0 128 128">
  <defs>
    <clipPath id="clip-Icons">
      <rect width="128" height="128"/>
    </clipPath>
  </defs>
  <g id="Icons" clip-path="url(#clip-Icons)">
    <g id="Typescript_logo_2020">
      <rect id="Rechteck_13" data-name="Rechteck 13" width="128" height="128" rx="50" fill="#3178c6"/>
      <rect id="Rechteck_14" data-name="Rechteck 14" width="128" height="128" rx="10" fill="#3178c6"/>
      <path id="Pfad_16" data-name="Pfad 16" d="M167.735,280.356v12.515a26.524,26.524,0,0,0,7.219,2.346,47.554,47.554,0,0,0,8.784.782,41.048,41.048,0,0,0,8.549-.86,20.956,20.956,0,0,0,7.1-2.836,14.448,14.448,0,0,0,4.832-5.163,18.186,18.186,0,0,0,.763-13.845,13.939,13.939,0,0,0-2.935-4.556,21.486,21.486,0,0,0-4.6-3.579,49.247,49.247,0,0,0-6.045-2.992q-2.465-1.017-4.421-1.975a22.457,22.457,0,0,1-3.326-1.956,8.527,8.527,0,0,1-2.113-2.112,4.444,4.444,0,0,1-.743-2.523,4.216,4.216,0,0,1,.665-2.327,5.743,5.743,0,0,1,1.878-1.78,10.044,10.044,0,0,1,2.974-1.154,17.252,17.252,0,0,1,3.913-.41,24.824,24.824,0,0,1,3.306.234,26.172,26.172,0,0,1,3.5.724,24.377,24.377,0,0,1,3.423,1.232,18.868,18.868,0,0,1,3.071,1.721V240.151a30.553,30.553,0,0,0-6.241-1.623,50.848,50.848,0,0,0-7.766-.528,36.1,36.1,0,0,0-8.451.958,21.5,21.5,0,0,0-7.023,2.992,14.95,14.95,0,0,0-4.793,5.182,15.193,15.193,0,0,0-1.761,7.529,14.6,14.6,0,0,0,3.228,9.543q3.228,3.95,9.8,6.688,2.582,1.056,4.813,2.073a26.786,26.786,0,0,1,3.854,2.112,10.107,10.107,0,0,1,2.563,2.386,4.86,4.86,0,0,1,.939,2.933,4.487,4.487,0,0,1-.587,2.249,5.2,5.2,0,0,1-1.78,1.8,9.758,9.758,0,0,1-2.974,1.193,17.872,17.872,0,0,1-4.167.43,23.777,23.777,0,0,1-8.06-1.427,24.053,24.053,0,0,1-7.395-4.282ZM146.7,249.521H162.75V239.25H118v10.271h15.977V295.25H146.7Z" transform="translate(-88.5 -178.5)" fill="#fff" fill-rule="evenodd"/>
    </g>
  </g>
</svg>
