<svg id="Komponente_2_2" data-name="Komponente 2 – 2" xmlns="http://www.w3.org/2000/svg" xmlns:xlink="http://www.w3.org/1999/xlink" width="75" height="75" viewBox="0 0 75 75">
  <defs>
    <clipPath id="clip-path">
      <rect id="Rechteck_2" data-name="Rechteck 2" width="75" height="75" fill="#b8fff7"/>
    </clipPath>
  </defs>
  <g id="Zeichenfläche_8" data-name="Zeichenfläche – 8" clip-path="url(#clip-path)">
    <rect id="Rechteck_167" data-name="Rechteck 167" width="75" height="75" fill="#b8fff7"/>
  </g>
  <path id="Pfad_3" data-name="Pfad 3" d="M54.462,14.923H43.385V9.385a1.385,1.385,0,1,0-2.769,0v5.538H29.538A5.538,5.538,0,0,0,24,20.462V39.846a5.538,5.538,0,0,0,5.538,5.538H54.462A5.538,5.538,0,0,0,60,39.846V20.462A5.538,5.538,0,0,0,54.462,14.923Zm2.769,24.923a2.769,2.769,0,0,1-2.769,2.769H29.538a2.769,2.769,0,0,1-2.769-2.769V20.462a2.769,2.769,0,0,1,2.769-2.769H54.462a2.769,2.769,0,0,1,2.769,2.769Zm-9-9.692H35.769a4.846,4.846,0,0,0,0,9.692H48.231a4.846,4.846,0,1,0,0-9.692Zm-4.154,2.769v4.154H39.923V32.923ZM33.692,35a2.077,2.077,0,0,1,2.077-2.077h1.385v4.154H35.769A2.077,2.077,0,0,1,33.692,35Zm14.538,2.077H46.846V32.923h1.385a2.077,2.077,0,1,1,0,4.154ZM32.308,25.308a2.077,2.077,0,1,1,2.077,2.077A2.077,2.077,0,0,1,32.308,25.308Zm15.231,0a2.077,2.077,0,1,1,2.077,2.077A2.077,2.077,0,0,1,47.538,25.308Z" transform="translate(-4.5 10.808)" fill="#695000"/>
</svg>
