<svg xmlns="http://www.w3.org/2000/svg" xmlns:xlink="http://www.w3.org/1999/xlink" width="128" height="128" viewBox="0 0 128 128">
  <defs>
    <clipPath id="clip-Icons">
      <rect width="128" height="128"/>
    </clipPath>
  </defs>
  <g id="Icons" clip-path="url(#clip-Icons)">
    <path id="Pfad_74" data-name="Pfad 74" d="M125.177,71.238c-.423-.423-.851-.834-1.28-1.24L138.091,55.8a4.574,4.574,0,1,0-6.469-6.469L116.766,64.192a63.674,63.674,0,0,0-73.457.109L28.377,49.335A4.574,4.574,0,0,0,21.909,55.8l14.32,14.32A64.788,64.788,0,0,0,16,117.215v13.069a9.143,9.143,0,0,0,9.143,9.143H134.857A9.143,9.143,0,0,0,144,130.284V116.569A63.571,63.571,0,0,0,125.177,71.238ZM59.428,116.569a6.857,6.857,0,1,1,6.857-6.857A6.857,6.857,0,0,1,59.428,116.569Zm41.143,0a6.857,6.857,0,1,1,6.857-6.857A6.857,6.857,0,0,1,100.571,116.569Z" transform="translate(-16 -29.711)" fill="#4e4e4e"/>
  </g>
</svg>
