<svg xmlns="http://www.w3.org/2000/svg" xmlns:xlink="http://www.w3.org/1999/xlink" width="128" height="128" viewBox="0 0 128 128">
  <defs>
    <clipPath id="clip-Icons">
      <rect width="128" height="128"/>
    </clipPath>
  </defs>
  <g id="Icons" clip-path="url(#clip-Icons)">
    <g id="surface53924336" transform="translate(-10.179 -14.492)">
      <path id="Pfad_26" data-name="Pfad 26" d="M50.725,20.059a7.237,7.237,0,0,0-4.481,1.381,13.889,13.889,0,0,0-4.122,3.926c-2.512,3.578-4.2,8.951-4.2,16.935a85.58,85.58,0,0,0,.8,11.279,77.051,77.051,0,0,0-10.289,3.111,39.278,39.278,0,0,0-12.323,7.146c-3.252,2.948-5.678,6.83-5.917,11.312a15.08,15.08,0,0,0,3.187,10.017,31.209,31.209,0,0,0,7.527,6.33,5.578,5.578,0,1,0,6.178-9.289,23.8,23.8,0,0,1-5-4,2.616,2.616,0,0,1-.761-2.469v-.011c.044-.837.489-2.012,2.284-3.644a29.4,29.4,0,0,1,8.854-5.014,65.929,65.929,0,0,1,8.342-2.523q1.4,5.759,3.437,11.594c-8.1,14.977-12.073,28.072-11.888,38.644.109,6.3.881,13.3,6.994,17.272a15.553,15.553,0,0,0,11.333,2,45.15,45.15,0,0,0,8.864-3.078,5.571,5.571,0,1,0-4.264-10.289,44.432,44.432,0,0,1-6.733,2.436c-1.588.315-2.1.261-3.143-.413-.413-.272-1.827-3.165-1.914-8.1-.1-5.928,1.893-14.488,6.428-24.744,7.157,14.836,16.13,27.333,25.1,35.784A47.5,47.5,0,0,0,88.7,135.154c4.623,1.947,9.789,2.621,14.346.3l.3-.152.283-.2c4.318-2.915,5.786-7.69,6.374-12.41a59.989,59.989,0,0,0-.5-15.347,158.776,158.776,0,0,0-7.885-30.77,5.564,5.564,0,1,0-10.441,3.829,152.449,152.449,0,0,1,7.3,28.486,51.876,51.876,0,0,1,.479,12.443c-.359,2.861-1.131,3.829-1.425,4.133-.75.283-1.936.5-4.481-.587a38.064,38.064,0,0,1-10.387-7.353c-7.766-7.32-16.337-19.1-23-33.076-1.164-2.436-2.2-4.916-3.176-7.407,1.338-2.328,2.784-4.7,4.361-7.124,1.838-2.828,3.742-5.547,5.667-8.125q3.834.016,7.864.207c15.5.816,29.617,4.09,39.33,8.321a38.249,38.249,0,0,1,10.768,6.6c2.186,2.088,2.6,3.513,2.556,4.329-.1,1.925-2.154,4.351-7.135,5.808a5.576,5.576,0,1,0,3.132,10.7c7.679-2.251,14.705-7.7,15.14-15.923.261-5.068-2.393-9.506-5.982-12.965a47.307,47.307,0,0,0-14.031-8.756c-11.225-4.894-26.136-8.266-42.571-9.191A97.581,97.581,0,0,1,83.344,43.4c7.342-6.33,14.237-9.473,17.435-9.593a3.585,3.585,0,0,1,2.23.468,2.517,2.517,0,0,1,1.36,2.306,10.393,10.393,0,0,1-1.664,5.743,5.565,5.565,0,1,0,9.658,5.525,20.817,20.817,0,0,0,3.089-12.356,14.385,14.385,0,0,0-6.385-10.55,14.936,14.936,0,0,0-8.712-2.262c-8.049.3-15.945,5.09-24.276,12.28A122.092,122.092,0,0,0,60.993,50.752c-3.894.141-7.668.435-11.268.881a71.953,71.953,0,0,1-.663-9.332c0-6.406,1.36-9.376,2.175-10.528a1.428,1.428,0,0,1,.37-.392c3.285.2,4.5,1.24,7.766,4.024a5.571,5.571,0,1,0,7.222-8.484C63.037,23.887,58.132,20.059,50.725,20.059Zm1.642,42.516c-.12.185-.25.381-.381.566-.044-.163-.109-.348-.141-.522C52.019,62.608,52.193,62.586,52.367,62.575Zm21.753,7.57A8.353,8.353,0,1,0,82.474,78.5,8.355,8.355,0,0,0,74.121,70.145Zm0,0" transform="translate(0 0)" fill="#4e4e4e"/>
    </g>
  </g>
</svg>
