<svg xmlns="http://www.w3.org/2000/svg" xmlns:xlink="http://www.w3.org/1999/xlink" width="128" height="128" viewBox="0 0 128 128">
  <defs>
    <clipPath id="clip-Icons">
      <rect width="128" height="128"/>
    </clipPath>
  </defs>
  <g id="Icons" clip-path="url(#clip-Icons)">
    <g id="Gruppe_15" data-name="Gruppe 15">
      <rect id="Rechteck_46" data-name="Rechteck 46" width="128" height="128" fill="#4e4e4e"/>
      <rect id="Rechteck_47" data-name="Rechteck 47" width="48" height="8" transform="translate(11.852 104)" fill="#ececec"/>
      <path id="Pfad_31" data-name="Pfad 31" d="M47.067,28.878V19.1H20.4v9.778h7.7V62.359H20.4v9.778H47.067V62.359H39.659V28.878Z" transform="translate(-0.548 -2.507)" fill="#ececec"/>
      <path id="Pfad_32" data-name="Pfad 32" d="M49.385,73.026a21.465,21.465,0,0,1-10.37-2.37,25.634,25.634,0,0,1-6.815-5.63l7.407-8.3a17.2,17.2,0,0,0,4.444,3.852,9.988,9.988,0,0,0,5.037,1.481,7.14,7.14,0,0,0,5.333-2.074c1.185-1.481,1.778-3.556,1.778-6.815V19.1H68.052V53.767a23.364,23.364,0,0,1-1.185,8.3,15.788,15.788,0,0,1-3.852,5.926,13.269,13.269,0,0,1-5.926,3.556,20.983,20.983,0,0,1-7.7,1.481" transform="translate(22.615 -2.507)" fill="#ececec"/>
    </g>
  </g>
</svg>
