<svg xmlns="http://www.w3.org/2000/svg" xmlns:xlink="http://www.w3.org/1999/xlink" width="128" height="128" viewBox="0 0 128 128">
  <defs>
    <clipPath id="clip-Icons">
      <rect width="128" height="128"/>
    </clipPath>
  </defs>
  <g id="Icons" clip-path="url(#clip-Icons)">
    <g id="surface53929024" transform="translate(-12.081)">
      <path id="Pfad_41" data-name="Pfad 41" d="M109.36,0A10.24,10.24,0,1,0,119.6,10.24,10.25,10.25,0,0,0,109.36,0ZM38.96,7.68a8.96,8.96,0,1,0,8.96,8.96A8.971,8.971,0,0,0,38.96,7.68ZM78.64,17.8A46.58,46.58,0,0,0,35.29,47.666a2.559,2.559,0,0,0,4.24,2.68C47.67,41.83,62.658,36.54,78.64,36.54s30.97,5.29,39.11,13.806a2.561,2.561,0,0,0,4.244-2.68A46.588,46.588,0,0,0,78.64,17.8ZM37.99,76.766a2.531,2.531,0,0,0-1.676.374,2.564,2.564,0,0,0-1.028,3.074,46.4,46.4,0,0,0,86.7,0,2.561,2.561,0,0,0-4.244-2.68C109.6,86.05,94.618,91.34,78.636,91.34S47.67,86.05,39.53,77.534a2.573,2.573,0,0,0-1.54-.77Zm6.09,28.194A11.52,11.52,0,1,0,55.6,116.48,11.532,11.532,0,0,0,44.08,104.96Zm0,0" transform="translate(0)" fill="#4e4e4e"/>
    </g>
  </g>
</svg>
